<svg width="26" height="26" viewBox="0 0 26 26" fill="none" xmlns="http://www.w3.org/2000/svg">

<path d="M14.4304 11.7871C14.5045 12.1283 14.5838 12.4491 14.6726 12.75C14.9775 13.783 15.4009 14.6475 16.072 15.334C16.8955 16.1764 17.9995 16.649 19.4089 16.9639C17.9996 17.2787 16.8955 17.7514 16.072 18.5938C15.401 19.2803 14.9775 20.1448 14.6726 21.1777C14.58 21.4915 14.4973 21.827 14.4207 22.1846C14.3425 21.8322 14.2601 21.5011 14.1667 21.1924C13.8573 20.1691 13.4328 19.3174 12.7634 18.6396C12.0926 17.9604 11.2515 17.5327 10.2439 17.2246C9.96018 17.1379 9.65805 17.0599 9.33765 16.9873C10.7995 16.6726 11.9409 16.1992 12.7869 15.335C13.4585 14.6488 13.8823 13.7842 14.1882 12.751C14.2774 12.4499 14.3561 12.1286 14.4304 11.7871ZM22.3142 16.5186H22.3113C22.3136 16.5183 22.3158 16.5178 22.3181 16.5176L22.3142 16.5186ZM7.08862 8.21094C7.19911 8.41921 7.33618 8.61685 7.51343 8.79492C7.73008 9.01256 7.976 9.17065 8.23608 9.29297C7.98074 9.41536 7.73902 9.57103 7.52515 9.78125C7.36004 9.94357 7.22817 10.1215 7.12085 10.3096C7.01135 10.1067 6.87667 9.91428 6.70288 9.74023C6.47835 9.51537 6.22248 9.35306 5.9519 9.22754C6.21032 9.10764 6.45676 8.95506 6.67456 8.74609C6.84473 8.58277 6.97826 8.40182 7.08862 8.21094ZM12.365 3.12402C12.4022 3.16366 12.4402 3.20122 12.4792 3.23633C12.435 3.27471 12.3914 3.31627 12.3494 3.36035C12.3409 3.36923 12.3332 3.37873 12.325 3.3877C12.3181 3.38033 12.3115 3.37254 12.3044 3.36523C12.2622 3.32138 12.219 3.28033 12.1746 3.24219C12.2168 3.20458 12.2585 3.16496 12.2986 3.12207C12.3099 3.10993 12.3199 3.09627 12.3308 3.08398C12.3423 3.09692 12.353 3.11126 12.365 3.12402Z" stroke="#666666" stroke-width="2" stroke-linejoin="miter" stroke-miterlimit="6"></path>

</svg>