<svg width="22" height="22" viewBox="0 0 22 22" fill="none" xmlns="http://www.w3.org/2000/svg">
<path d="M14.4074 6.06368C14.5491 6.36558 14.832 6.57698 15.1617 6.62734L21.0022 7.51948C21.8069 7.64239 22.1354 8.62379 21.567 9.20637L17.2786 13.6015C17.057 13.8287 16.9563 14.1476 17.0074 14.4609L18.0115 20.6139C18.1459 21.4378 17.2714 22.054 16.5408 21.6501L11.4099 18.8142C11.1089 18.6478 10.7434 18.6478 10.4424 18.8142L5.31232 21.6501C4.58177 22.054 3.70721 21.4379 3.84155 20.614L4.84493 14.4609C4.89601 14.1476 4.79536 13.8287 4.57371 13.6016L0.285319 9.20637C-0.283113 8.62379 0.0454466 7.64239 0.850069 7.51948L6.69062 6.62734C7.0203 6.57698 7.30318 6.36558 7.44487 6.06368L10.0209 0.575125C10.3808 -0.191708 11.4715 -0.191708 11.8314 0.575125L14.4074 6.06368Z" fill="#F4A316"/>
</svg>
